<svg xmlns="http://www.w3.org/2000/svg" viewBox="0 0 67.15 55.24"><defs><style>.cls-1{fill:#d7e02c;}.cls-2{fill:#cfae2c;}.cls-3{fill:#f8ba17;}.cls-4{fill:#4f8845;}.cls-5{fill:#39a84c;}.cls-6{fill:#02b1dc;}</style></defs><title>lable</title><g id="Layer_2" data-name="Layer 2"><g id="Layer_1-2" data-name="Layer 1"><g id="_Group_" data-name="&lt;Group&gt;"><path class="cls-1" d="M62.23,23.3l-1.94,9.13,0,0c-11.66.19-25,1.9-34.27,4.63h0l0,0a39.19,39.19,0,0,1-5.35-4.63,35.78,35.78,0,0,1-3.77-4.59h0a68.44,68.44,0,0,1,5.75-4.63,72.66,72.66,0,0,1,7.3-4.62h0C38,21.31,50.62,23.1,62.2,23.3Z"/><path class="cls-2" d="M29.88,18.59a72.66,72.66,0,0,0-7.3,4.62,68.44,68.44,0,0,0-5.75,4.63h0l0,0a34.35,34.35,0,0,1-5.87-15.69h0c-.1-.92-.17-1.86-.2-2.81a57.05,57.05,0,0,1,.66-6.94,9.69,9.69,0,0,0,.47,2.77,12.47,12.47,0,0,0,2.4,4.19C17.34,13,22.77,16.2,29.88,18.59Z"/><path class="cls-3" d="M67.13.08a.22.22,0,0,0,0-.08H11.71l-.3,1.41h0a7.53,7.53,0,0,0,0,1,9.69,9.69,0,0,0,.47,2.77,12.47,12.47,0,0,0,2.4,4.19c3.08,3.69,8.51,6.87,15.62,9.26h0c10-5.55,23.39-9,35.29-9.31h0l2-9.19Z"/><path class="cls-4" d="M10.93,12.12h0A34.35,34.35,0,0,0,16.8,27.82l0,0a63.38,63.38,0,0,0-4.65,4.62A55.68,55.68,0,0,0,4.3,43.53h0c-.49.92-1,1.86-1.38,2.81A45,45,0,0,0,.47,53L11.41,1.42a7.53,7.53,0,0,0,0,1,57.05,57.05,0,0,0-.66,6.94C10.76,10.26,10.83,11.2,10.93,12.12Z"/><path class="cls-5" d="M.47,53a45,45,0,0,1,2.45-6.68c.42-1,.89-1.89,1.38-2.81h0a55.68,55.68,0,0,1,7.87-11.06,63.38,63.38,0,0,1,4.65-4.62,35.78,35.78,0,0,0,3.77,4.59,39.19,39.19,0,0,0,5.35,4.63l0,0c-8.13,2.39-14.9,5.57-19.55,9.26a23,23,0,0,0-4.18,4.19,13.67,13.67,0,0,0-2,3.71Z"/><path class="cls-6" d="M.21,54.25a13.67,13.67,0,0,1,2-3.71,23,23,0,0,1,4.18-4.19c4.65-3.69,11.42-6.87,19.55-9.26h0c7.68,5.54,19.59,8.94,31.34,9.24v0h0l-1.88,8.89H0Z"/></g></g></g></svg>