<svg xmlns="http://www.w3.org/2000/svg" viewBox="0 0 260.61 56.68"><defs><style>.cls-1{fill:#fff;}.cls-2{fill:#d7e02c;}.cls-3{fill:#cfae2c;}.cls-4{fill:#f8ba17;}.cls-5{fill:#4f8845;}.cls-6{fill:#39a84c;}.cls-7{fill:#02b1dc;}</style></defs><title>ephyros-logo</title><g id="Layer_2" data-name="Layer 2"><g id="Layer_1-2" data-name="Layer 1"><path class="cls-1" d="M152.68,19a18,18,0,0,0-6.43,1.22l2.43-11.4H143.4l-8.09,38.19h5.28l4.28-20.16c.31-1.55,3.29-2.76,6.81-2.76,2.12,0,3.25.29,3.8,1,.77,1,.74,3.15-.11,7.12l-3.11,14.84h5.28L160.72,32c1.12-5.3.91-8.55-.69-10.52C158.68,19.78,156.41,19,152.68,19Z"/><path class="cls-1" d="M190.79,19.74H185l-.27.55c-2.81,5.73-6.45,12.22-11.1,19.78a161.77,161.77,0,0,0-2.84-19.56l-.18-.77h-5.75l.34,1.25c2.12,7.66,3.16,19.44,3.61,26-1.9,2.87-4,5.95-5.65,8.1l-1.2,1.59h6.3l.29-.4c2-2.61,4.64-6.51,6.68-9.69,4.72-7.49,10.18-16.36,14.83-25.41Z"/><path class="cls-1" d="M208.71,24.64l1.11-5.31-1-.13a20,20,0,0,0-2.7-.16,14.56,14.56,0,0,0-6.17,1.32l.13-.62h-5.29L189,47.05h5.28l4.28-20.16c.29-1.51,3.11-2.56,6.86-2.56a18.31,18.31,0,0,1,2.42.19Z"/><path class="cls-1" d="M224.32,19c-8.87,0-13.15,3.93-15.25,14-1.22,5.72-.92,9.46,1,11.78,1.61,2,4.35,2.91,8.63,2.91,8.87,0,13.17-4,15.36-14.28,1.17-5.61.87-9.28-1-11.54C231.43,19.93,228.74,19,224.32,19Zm-5.06,23.72c-2.48,0-3.91-.39-4.63-1.28-1-1.19-1-3.63-.07-7.9,1.78-8.23,3.74-9.55,9.12-9.55,2.65,0,4.09.36,4.77,1.22.92,1.13.91,3.57,0,7.91C226.65,41.42,224.28,42.76,219.26,42.76Z"/><path class="cls-1" d="M250.46,24A17.61,17.61,0,0,1,257,25.35l.82.36,2.8-5-1.19-.36A30,30,0,0,0,251.11,19c-7.58,0-11.37,2.59-12.7,8.66a5.91,5.91,0,0,0,.76,5c1.29,1.72,3.83,2.64,8.2,3,2.33.2,3.77.63,4.25,1.3.18.25.4.71.13,1.92-.66,3.09-2,3.93-6.25,3.93a20.87,20.87,0,0,1-7.38-1.35l-.86-.43-2.65,4.91,1.08.4a32,32,0,0,0,9.2,1.41c7.52,0,11.11-2.54,12.41-8.76.5-2.33.23-4.13-.79-5.49-1.32-1.74-3.84-2.69-7.94-3-2.44-.16-3.93-.57-4.42-1.23-.15-.2-.34-.58-.14-1.48C244.71,24.57,246.23,24,250.46,24Z"/><polygon class="cls-1" points="85.28 29.84 99.67 29.84 100.75 24.86 86.36 24.86 88.44 15.1 108.75 15.1 109.83 10.11 83.88 10.11 76.04 47.05 101.99 47.05 103 42.06 82.69 42.06 85.28 29.84"/><path class="cls-1" d="M124.07,19A33.17,33.17,0,0,0,113,21.12l-.49.2L105,56.68h5.29l2.15-10.31a11.48,11.48,0,0,0,5.92,1.38c8.83,0,13.12-4,15.31-14.28,1.18-5.62.87-9.29-1-11.55C131.12,19.93,128.45,19,124.07,19Zm-5,23.62c-2.4,0-4.32-.54-5-1.41a1.13,1.13,0,0,1-.23-1L117,25a23.41,23.41,0,0,1,6.38-.84c2.65,0,4.07.35,4.74,1.18.9,1.11.88,3.53,0,7.85C126.39,41.22,124.24,42.66,119.06,42.66Z"/><g id="_Group_" data-name="&lt;Group&gt;"><path class="cls-2" d="M62.23,23.3l-1.94,9.13,0,0c-11.66.19-25,1.9-34.27,4.63h0l0,0a39.19,39.19,0,0,1-5.35-4.63,35.78,35.78,0,0,1-3.77-4.59h0a68.44,68.44,0,0,1,5.75-4.63,72.66,72.66,0,0,1,7.3-4.62h0C38,21.31,50.62,23.1,62.2,23.3Z"/><path class="cls-3" d="M29.88,18.59a72.66,72.66,0,0,0-7.3,4.62,68.44,68.44,0,0,0-5.75,4.63h0l0,0a34.35,34.35,0,0,1-5.87-15.69h0c-.1-.92-.17-1.86-.2-2.81a57.05,57.05,0,0,1,.66-6.94,9.69,9.69,0,0,0,.47,2.77,12.47,12.47,0,0,0,2.4,4.19C17.34,13,22.77,16.2,29.88,18.59Z"/><path class="cls-4" d="M67.13.08a.22.22,0,0,0,0-.08H11.71l-.3,1.41h0a7.53,7.53,0,0,0,0,1,9.69,9.69,0,0,0,.47,2.77,12.47,12.47,0,0,0,2.4,4.19c3.08,3.69,8.51,6.87,15.62,9.26h0c10-5.55,23.39-9,35.29-9.31h0l2-9.19Z"/><path class="cls-5" d="M10.93,12.12h0A34.35,34.35,0,0,0,16.8,27.82l0,0a63.38,63.38,0,0,0-4.65,4.62A55.68,55.68,0,0,0,4.3,43.53h0c-.49.92-1,1.86-1.38,2.81A45,45,0,0,0,.47,53L11.41,1.42a7.53,7.53,0,0,0,0,1,57.05,57.05,0,0,0-.66,6.94C10.76,10.26,10.83,11.2,10.93,12.12Z"/><path class="cls-6" d="M.47,53a45,45,0,0,1,2.45-6.68c.42-1,.89-1.89,1.38-2.81h0a55.68,55.68,0,0,1,7.87-11.06,63.38,63.38,0,0,1,4.65-4.62,35.78,35.78,0,0,0,3.77,4.59,39.19,39.19,0,0,0,5.35,4.63l0,0c-8.13,2.39-14.9,5.57-19.55,9.26a23,23,0,0,0-4.18,4.19,13.67,13.67,0,0,0-2,3.71Z"/><path class="cls-7" d="M.21,54.25a13.67,13.67,0,0,1,2-3.71,23,23,0,0,1,4.18-4.19c4.65-3.69,11.42-6.87,19.55-9.26h0c7.68,5.54,19.59,8.94,31.34,9.24v0h0l-1.88,8.89H0Z"/></g></g></g></svg>