<svg xmlns="http://www.w3.org/2000/svg" viewBox="0 0 260.47 56.67"><defs><style>.cls-1{fill:#fff;}</style></defs><title>Ephyros-white</title><g id="Layer_2" data-name="Layer 2"><g id="Layer_1-2" data-name="Layer 1"><path class="cls-1" d="M152.54,19a18,18,0,0,0-6.43,1.22l2.43-11.4h-5.28l-8.09,38.19h5.28l4.28-20.16c.31-1.55,3.29-2.76,6.81-2.76,2.12,0,3.25.29,3.8,1,.77,1,.74,3.15-.11,7.12l-3.11,14.84h5.28L160.58,32c1.12-5.3.91-8.55-.69-10.52C158.54,19.78,156.27,19,152.54,19Z"/><path class="cls-1" d="M190.65,19.74h-5.81l-.27.55c-2.81,5.73-6.45,12.22-11.1,19.78a161.77,161.77,0,0,0-2.84-19.56l-.18-.77H164.7L165,21c2.12,7.66,3.16,19.44,3.61,26-1.9,2.87-4,5.95-5.66,8.1l-1.19,1.58h6.3l.29-.39c2-2.61,4.64-6.51,6.68-9.7,4.71-7.48,10.18-16.35,14.83-25.4Z"/><path class="cls-1" d="M208.57,24.64l1.11-5.31-1.05-.13a20.12,20.12,0,0,0-2.7-.16,14.56,14.56,0,0,0-6.17,1.32l.13-.62H194.6l-5.78,27.31h5.28l4.28-20.16c.29-1.51,3.11-2.56,6.86-2.56a18.31,18.31,0,0,1,2.42.19Z"/><path class="cls-1" d="M224.18,19c-8.87,0-13.15,3.93-15.26,14-1.21,5.72-.91,9.46,1,11.78,1.61,2,4.35,2.91,8.63,2.91,8.87,0,13.17-4,15.36-14.28,1.17-5.61.87-9.28-1-11.54C231.28,19.93,228.6,19,224.18,19Zm-5.06,23.72c-2.48,0-3.91-.39-4.63-1.28-1-1.19-1-3.63-.07-7.9,1.78-8.23,3.74-9.55,9.11-9.55,2.66,0,4.1.36,4.78,1.22.92,1.13.91,3.57,0,7.91C226.51,41.42,224.14,42.76,219.12,42.76Z"/><path class="cls-1" d="M250.32,24a17.61,17.61,0,0,1,6.53,1.32l.82.36,2.8-5-1.19-.36A29.67,29.67,0,0,0,251,19c-7.58,0-11.37,2.59-12.7,8.66a5.91,5.91,0,0,0,.76,5c1.29,1.72,3.83,2.64,8.2,3,2.33.2,3.77.63,4.25,1.3.18.25.4.71.13,1.92-.66,3.08-2,3.93-6.25,3.93A20.82,20.82,0,0,1,238,41.46l-.86-.43-2.65,4.91,1.08.39a31.67,31.67,0,0,0,9.2,1.42c7.52,0,11.11-2.54,12.41-8.76.5-2.33.23-4.13-.79-5.49-1.32-1.74-3.84-2.69-7.94-3C246,30.36,244.5,30,244,29.29c-.15-.2-.34-.58-.14-1.49C244.57,24.57,246.09,24,250.32,24Z"/><polygon class="cls-1" points="85.14 29.84 99.53 29.84 100.61 24.86 86.22 24.86 88.3 15.1 108.61 15.1 109.69 10.11 83.74 10.11 75.9 47.05 101.85 47.05 102.86 42.06 82.55 42.06 85.14 29.84"/><path class="cls-1" d="M123.93,19a33.13,33.13,0,0,0-11.06,2.08l-.49.2L104.9,56.67h5.29l2.15-10.3a11.48,11.48,0,0,0,5.92,1.38c8.83,0,13.12-4,15.31-14.28,1.18-5.62.87-9.29-1-11.55C131,19.93,128.31,19,123.93,19Zm-5,23.62c-2.39,0-4.31-.54-5-1.41a1.13,1.13,0,0,1-.23-1L116.9,25a23.41,23.41,0,0,1,6.38-.84c2.65,0,4.07.35,4.74,1.18.9,1.11.88,3.53-.05,7.85C126.25,41.22,124.1,42.66,118.91,42.66Z"/><path class="cls-1" d="M0,54.53a15.44,15.44,0,0,1,2.09-4h0a23,23,0,0,1,4.18-4.19c4.65-3.69,11.42-6.87,19.55-9.26,9.29-2.73,22.62-4.44,34.28-4.64l0,0,1.94-9.13h0c-11.58-.2-24.18-2-32.32-4.71C22.63,16.2,17.2,13,14.12,9.33a12.47,12.47,0,0,1-2.4-4.19A15.38,15.38,0,0,1,11.27.4Z"/><path class="cls-1" d="M57.17,46.33c-10.12-.26-20.34-2.83-27.89-7.07-.9.23-1.78.47-2.62.71-7.82,2.3-14.22,5.31-18.53,8.73a19.81,19.81,0,0,0-3.58,3.57l0,.06a13,13,0,0,0-1.56,2.91H55.32l1.88-8.89h0Z"/><path class="cls-1" d="M14.26.63a12.92,12.92,0,0,0,.31,3.59,9.74,9.74,0,0,0,1.85,3.19c2.7,3.23,7.64,6.11,14.28,8.33.92.31,1.9.61,2.94.89A82.7,82.7,0,0,1,65,9.28h0L67,.09h0A.22.22,0,0,0,67,0H14.24A2.66,2.66,0,0,1,14.26.63Z"/></g></g></svg>